<svg width="225" height="76" viewBox="0 0 225 76" fill="none" xmlns="http://www.w3.org/2000/svg">
<path d="M16.2193 33.8373C16.5514 31.3541 18.6699 29.5 21.1752 29.5H64.1292C66.6677 29.5 68.8034 31.4023 69.0959 33.9239L72.9814 67.4239C73.3258 70.3937 71.0043 73 68.0146 73H16.6957C13.671 73 11.339 70.3353 11.7399 67.3373L16.2193 33.8373Z" fill="#7F90A3"/>
<path d="M14.5411 36.4671C14.8982 34.0092 17.0054 32.186 19.4891 32.186H62.901C65.4374 32.186 67.572 34.0852 67.867 36.6044L71.3843 66.6365C71.7323 69.6081 69.4101 72.2181 66.4182 72.2181H15.1255C12.0779 72.2181 9.73925 69.5151 10.1775 66.4992L14.5411 36.4671Z" fill="#294A6B"/>
<path d="M13.1355 34.0364C13.3748 31.4657 15.5321 29.5 18.1139 29.5H42.13C44.7353 29.5 46.904 31.5006 47.1138 34.0975L49.5393 64.1296C49.7744 67.0403 47.4757 69.5321 44.5555 69.5321H15.3176C12.3731 69.5321 10.0661 67.0004 10.3391 64.0686L13.1355 34.0364Z" fill="#294A6B"/>
<path d="M60.3462 41.3174C62.9458 41.3174 65.1296 43.2727 65.4155 45.8564L67.0659 60.7656C67.4001 63.7859 65.0353 66.4267 61.9966 66.4268H21.2427C18.2154 66.4268 15.8543 63.8047 16.1704 60.7939L17.7358 45.8848C18.0084 43.2887 20.1968 41.3176 22.8071 41.3174H60.3462Z" fill="#FEFEFE" stroke="#1F2D42" stroke-width="0.2"/>
<path d="M35.7736 28.7375C37.2299 28.4538 38.2085 28.6155 38.8068 29.0286L51.0246 28.8955C51.1716 28.8939 51.2688 29.048 51.2046 29.1802C48.1867 35.3902 42.4241 37.158 36.7076 34.728C36.5127 34.6452 36.5701 34.3041 36.7729 34.2432C39.0718 33.5535 40.5454 30.2293 38.8068 29.0286L35.8152 29.0613C35.5851 29.0638 35.5478 28.7815 35.7736 28.7375Z" fill="#071C3E"/>
<path d="M51.2046 29.1802C48.1867 35.3902 42.4241 37.158 36.7076 34.728C36.5127 34.6452 36.5701 34.3041 36.7729 34.2432C39.8629 33.3162 41.4618 27.6294 35.7736 28.7375C35.5478 28.7815 35.5851 29.0638 35.8152 29.0613L51.0246 28.8955C51.1716 28.8939 51.2688 29.048 51.2046 29.1802Z" stroke="#071C3E"/>
<path d="M30.0552 61.5686H52.6008" stroke="#4A4A51" stroke-width="3.2" stroke-linecap="round"/>
<path d="M35.6681 14.3884L40.9451 19.6654C41.3418 20.0621 41.9871 20.0549 42.3748 19.6495L52.6681 8.88843" stroke="#3A425F" stroke-width="4" stroke-linecap="round"/>
<path d="M20.6281 14.5V3C20.6281 1.89543 21.5235 1 22.6281 1H59.6281C60.7327 1 61.6281 1.89543 61.6281 3V27.5C61.6281 28.6046 60.7327 29.5 59.6281 29.5H40.1281" stroke="#071C3E" stroke-width="2" stroke-linecap="round"/>
<path d="M61.7439 18.5H69.6281C70.7327 18.5 71.6281 19.3954 71.6281 20.5V27.5C71.6281 28.6046 70.7327 29.5 69.6281 29.5H59.65" stroke="#071C3E" stroke-width="2" stroke-linecap="round"/>
<path d="M66.6281 30C69.1281 32.5 69.6281 33.5 69.8781 36.9062L70.1281 39.3125L70.6281 44.125L71.6281 53.75L72.935 66.3285C73.3047 69.8868 70.4983 72.9759 66.9209 72.9484L15.3081 72.5514C11.7405 72.5239 8.98488 69.408 9.39383 65.8638L11.6281 46.5" stroke="#071C3E" stroke-width="1.8" stroke-linecap="round"/>
<ellipse cx="25.1659" cy="47.4799" rx="2.79946" ry="2.33289" fill="#393F4E"/>
<ellipse cx="32.8686" cy="47.4799" rx="2.79946" ry="2.33289" fill="#393F4E"/>
<ellipse cx="28.5872" cy="54.6346" rx="2.79946" ry="2.33289" fill="#393F4E"/>
<ellipse cx="37.105" cy="54.6346" rx="2.79946" ry="2.33289" fill="#393F4E"/>
<ellipse cx="45.6228" cy="54.6346" rx="2.79946" ry="2.33289" fill="#393F4E"/>
<ellipse cx="54.1406" cy="54.6346" rx="2.79946" ry="2.33289" fill="#393F4E"/>
<ellipse cx="41.3779" cy="47.4799" rx="2.79946" ry="2.33289" fill="#393F4E"/>
<ellipse cx="49.9757" cy="47.4799" rx="2.79946" ry="2.33289" fill="#393F4E"/>
<ellipse cx="58.5292" cy="47.4799" rx="2.79946" ry="2.33289" fill="#393F4E"/>
<path d="M8.39195 42.2119C12.6154 46.0801 21.881 53.4379 22.9948 46.5699C23.0555 46.1955 22.8646 45.8255 22.5402 45.6289L7.705 36.6357C7.60942 36.5777 7.50083 36.5347 7.39096 36.5141C1.56513 35.4244 0.576988 43.31 7.45644 41.9626C7.78939 41.8974 8.14176 41.9827 8.39195 42.2119Z" fill="#2B4E6E" stroke="#071C3E" stroke-width="2"/>
<path d="M28.0063 10.9045C23.1406 14.1875 8.39925 18.9662 2.59419 19.0325C1.77776 19.0418 0.865475 19.8986 1.01745 20.7008C8.17009 58.4562 48.8219 53.3725 30.367 11.4228C30.0302 10.6573 28.6995 10.4368 28.0063 10.9045Z" fill="url(#paint0_linear_33_63)" stroke="#071C3E" stroke-width="2"/>
<path d="M27.8976 14.5048C23.6745 17.2568 12.4588 21.0444 7.56329 21.2846C6.74264 21.3249 5.7943 22.2202 5.94606 23.0277C11.994 55.2088 45.2025 50.8713 30.3362 15.0775C30.0096 14.2911 28.6111 14.0399 27.8976 14.5048Z" fill="#D4D9E2"/>
<path d="M27.3189 13.9586C22.9632 16.7453 10.9185 20.6485 5.86746 20.8151C5.06267 20.8416 4.14757 21.6824 4.27846 22.4769C9.93364 56.8038 45.524 51.0465 29.7072 14.5131C29.3746 13.7448 28.0241 13.5074 27.3189 13.9586Z" fill="#97A4BD"/>
<path d="M16.4553 27.7976C17.0134 29.3273 14.7846 27.6506 13.0242 28.2929C11.2638 28.9353 10.6385 31.6533 10.0804 30.1236C9.52226 28.594 10.4969 26.8333 12.2573 26.191C14.0177 25.5487 15.8972 26.268 16.4553 27.7976Z" fill="#071C3E"/>
<path d="M28.2737 24.1844C28.8318 25.714 26.603 24.0374 24.8426 24.6797C23.0822 25.322 22.4569 28.04 21.8988 26.5104C21.3407 24.9807 22.3153 23.22 24.0757 22.5777C25.8361 21.9354 27.7156 22.6547 28.2737 24.1844Z" fill="#071C3E"/>
<path d="M26.542 32.9516C24.191 35.2394 20.3947 35.8601 17.8748 35.4421C17.6943 35.4121 17.5595 35.6174 17.6681 35.7646C21.5661 41.0534 26.4722 39.6482 26.897 33.1051C26.9091 32.9186 26.6759 32.8213 26.542 32.9516Z" fill="#071C3E" stroke="#071C3E" stroke-width="1.5"/>
<path d="M93.7061 13.8997C95.4795 13.8997 96.8528 14.3263 97.8261 15.1797C98.8128 16.0197 99.3061 17.2063 99.3061 18.7397C99.3061 20.353 98.8128 21.613 97.8261 22.5197C96.8528 23.413 95.4795 23.8597 93.7061 23.8597H89.5461L90.9261 22.4797V27.8997H87.7661V13.8997H93.7061ZM93.5461 21.2997C94.4261 21.2997 95.1061 21.0997 95.5861 20.6997C96.0661 20.2863 96.3061 19.6663 96.3061 18.8397C96.3061 18.0397 96.0661 17.4397 95.5861 17.0397C95.1061 16.6397 94.4261 16.4397 93.5461 16.4397H89.5461L90.9261 15.0597V22.6997L89.5461 21.2997H93.5461ZM101.321 13.8997H104.481V25.2397H110.461V27.8997H101.321V13.8997ZM116.934 13.8997H120.174L126.134 27.8997H122.774L118.454 17.0597L114.114 27.8997H110.834L116.934 13.8997ZM114.234 22.6397H122.494V25.0997H114.234V22.6397ZM124.955 13.8997H128.135L131.715 20.2797L135.215 13.8997H138.395L131.915 25.8397H131.495L124.955 13.8997ZM130.135 21.8397H133.295V27.8997H130.135V21.8397ZM138.336 13.8997H141.736L145.136 25.9397H144.416L147.796 13.8997H150.896L154.316 25.9397H153.596L156.956 13.8997H160.216L155.476 27.8997H152.216L148.916 16.4197L149.656 16.4397L146.296 27.8997H143.056L138.336 13.8997ZM167.831 13.8997C169.657 13.8997 171.071 14.3263 172.071 15.1797C173.084 16.0197 173.591 17.2063 173.591 18.7397C173.591 20.353 173.084 21.613 172.071 22.5197C171.071 23.413 169.657 23.8597 167.831 23.8597H164.911V27.8997H161.751V13.8997H167.831ZM167.831 21.2997C168.697 21.2997 169.371 21.0997 169.851 20.6997C170.344 20.2863 170.591 19.6663 170.591 18.8397C170.591 18.0397 170.344 17.4397 169.851 17.0397C169.371 16.6397 168.697 16.4397 167.831 16.4397H164.911V21.2997H167.831ZM167.451 22.6797H170.531L173.931 27.8997H170.351L167.451 22.6797ZM176.223 13.8997H179.383V27.8997H176.223V13.8997ZM192.973 17.9197C192.466 17.4263 191.866 17.0397 191.173 16.7597C190.493 16.4797 189.813 16.3397 189.133 16.3397C188.506 16.3397 187.926 16.4597 187.393 16.6997C186.859 16.9263 186.393 17.2463 185.993 17.6597C185.593 18.073 185.279 18.553 185.053 19.0997C184.839 19.6463 184.733 20.2397 184.733 20.8797C184.733 21.5197 184.846 22.1197 185.073 22.6797C185.299 23.2263 185.613 23.713 186.013 24.1397C186.413 24.553 186.879 24.8797 187.413 25.1197C187.946 25.3463 188.526 25.4597 189.153 25.4597C189.726 25.4597 190.346 25.333 191.013 25.0797C191.679 24.8263 192.286 24.4863 192.833 24.0597L194.633 26.2797C194.139 26.6263 193.573 26.9397 192.933 27.2197C192.306 27.4997 191.646 27.7197 190.953 27.8797C190.259 28.0397 189.593 28.1197 188.953 28.1197C187.886 28.1197 186.899 27.9397 185.993 27.5797C185.099 27.2063 184.313 26.693 183.633 26.0397C182.953 25.3863 182.426 24.6197 182.053 23.7397C181.679 22.8463 181.493 21.893 181.493 20.8797C181.493 19.8663 181.686 18.9263 182.073 18.0597C182.459 17.1797 182.993 16.413 183.673 15.7597C184.366 15.1063 185.179 14.5997 186.113 14.2397C187.046 13.8797 188.053 13.6997 189.133 13.6997C189.826 13.6997 190.513 13.7863 191.193 13.9597C191.873 14.1197 192.519 14.353 193.133 14.6597C193.746 14.9663 194.286 15.333 194.753 15.7597L192.973 17.9197ZM191.893 20.8597H194.633V26.2797H191.893V20.8597ZM197.395 13.8997H200.555V19.7797H206.895V13.8997H210.055V27.8997H206.895V22.3197H200.555V27.8997H197.395V13.8997ZM211.757 13.8997H223.457V16.4997H219.177V27.8997H216.017V16.4997H211.757V13.8997ZM87.7661 35.8997H91.2861L95.6461 44.6197L99.9661 35.8997H103.466V49.8997H100.626V40.2597L96.6461 48.4797H94.6061L90.6061 40.2597V49.8997H87.7661V35.8997ZM111.075 35.8997H114.315L120.275 49.8997H116.915L112.595 39.0597L108.255 49.8997H104.975L111.075 35.8997ZM108.375 44.6397H116.635V47.0997H108.375V44.6397ZM130.892 39.6997C130.399 39.393 129.886 39.1397 129.352 38.9397C128.832 38.7263 128.326 38.5663 127.832 38.4597C127.352 38.3397 126.919 38.2797 126.532 38.2797C125.999 38.2797 125.566 38.3863 125.232 38.5997C124.912 38.7997 124.752 39.1063 124.752 39.5197C124.752 39.9063 124.886 40.2263 125.152 40.4797C125.432 40.7197 125.792 40.9197 126.232 41.0797C126.672 41.2263 127.159 41.3797 127.692 41.5397C128.226 41.6863 128.752 41.8597 129.272 42.0597C129.806 42.2597 130.292 42.5197 130.732 42.8397C131.186 43.1463 131.539 43.5463 131.792 44.0397C132.059 44.5197 132.192 45.1197 132.192 45.8397C132.192 46.7463 131.952 47.513 131.472 48.1397C130.992 48.7663 130.332 49.2463 129.492 49.5797C128.666 49.913 127.739 50.0797 126.712 50.0797C125.939 50.0797 125.179 49.9863 124.432 49.7997C123.686 49.613 122.979 49.353 122.312 49.0197C121.659 48.673 121.066 48.273 120.532 47.8197L121.792 45.3397C122.272 45.7663 122.799 46.1397 123.372 46.4597C123.959 46.7797 124.546 47.0263 125.132 47.1997C125.719 47.373 126.259 47.4597 126.752 47.4597C127.406 47.4597 127.912 47.333 128.272 47.0797C128.646 46.8263 128.832 46.4663 128.832 45.9997C128.832 45.5997 128.699 45.2797 128.432 45.0397C128.166 44.7997 127.812 44.5997 127.372 44.4397C126.932 44.2663 126.446 44.113 125.912 43.9797C125.379 43.833 124.846 43.6663 124.312 43.4797C123.779 43.2797 123.292 43.033 122.852 42.7397C122.412 42.433 122.052 42.0463 121.772 41.5797C121.506 41.113 121.372 40.5197 121.372 39.7997C121.372 38.9463 121.599 38.213 122.052 37.5997C122.506 36.973 123.139 36.493 123.952 36.1597C124.766 35.813 125.712 35.6397 126.792 35.6397C127.779 35.6397 128.739 35.7863 129.672 36.0797C130.606 36.3597 131.419 36.7263 132.112 37.1797L130.892 39.6997ZM133.027 35.8997H144.727V38.4997H140.447V49.8997H137.287V38.4997H133.027V35.8997ZM146.418 35.8997H157.078V38.4397H149.578V41.5997H156.318V44.1397H149.578V47.3597H157.298V49.8997H146.418V35.8997ZM165.858 35.8997C167.685 35.8997 169.098 36.3263 170.098 37.1797C171.111 38.0197 171.618 39.2063 171.618 40.7397C171.618 42.353 171.111 43.613 170.098 44.5197C169.098 45.413 167.685 45.8597 165.858 45.8597H162.938V49.8997H159.778V35.8997H165.858ZM165.858 43.2997C166.725 43.2997 167.398 43.0997 167.878 42.6997C168.371 42.2863 168.618 41.6663 168.618 40.8397C168.618 40.0397 168.371 39.4397 167.878 39.0397C167.398 38.6397 166.725 38.4397 165.858 38.4397H162.938V43.2997H165.858ZM165.478 44.6797H168.558L171.958 49.8997H168.378L165.478 44.6797ZM172.514 35.8997H175.694L179.274 42.2797L182.774 35.8997H185.954L179.474 47.8397H179.054L172.514 35.8997ZM177.694 43.8397H180.854V49.8997H177.694V43.8397ZM92.2661 57.8997H95.5061L101.466 71.8997H98.1061L93.7861 61.0597L89.4461 71.8997H86.1661L92.2661 57.8997ZM89.5661 66.6397H97.8261V69.0997H89.5661V66.6397ZM112.711 62.1797C112.244 61.6063 111.684 61.1597 111.031 60.8397C110.377 60.5063 109.724 60.3397 109.071 60.3397C108.471 60.3397 107.911 60.453 107.391 60.6797C106.884 60.9063 106.431 61.2263 106.031 61.6397C105.644 62.0397 105.344 62.513 105.131 63.0597C104.917 63.6063 104.811 64.1997 104.811 64.8397C104.811 65.4663 104.917 66.053 105.131 66.5997C105.344 67.1463 105.644 67.6263 106.031 68.0397C106.431 68.4397 106.884 68.7597 107.391 68.9997C107.911 69.2263 108.471 69.3397 109.071 69.3397C109.711 69.3397 110.351 69.193 110.991 68.8997C111.631 68.593 112.204 68.1863 112.711 67.6797L114.571 69.6197C114.077 70.1263 113.517 70.5663 112.891 70.9397C112.277 71.313 111.631 71.6063 110.951 71.8197C110.271 72.0197 109.591 72.1197 108.911 72.1197C107.857 72.1197 106.884 71.9397 105.991 71.5797C105.111 71.2063 104.337 70.693 103.671 70.0397C103.017 69.373 102.504 68.5997 102.131 67.7197C101.757 66.8397 101.571 65.8863 101.571 64.8597C101.571 63.8463 101.757 62.9063 102.131 62.0397C102.504 61.173 103.031 60.413 103.711 59.7597C104.391 59.1063 105.177 58.5997 106.071 58.2397C106.977 57.8797 107.964 57.6997 109.031 57.6997C109.711 57.6997 110.384 57.793 111.051 57.9797C111.731 58.1663 112.364 58.433 112.951 58.7797C113.551 59.113 114.084 59.5263 114.551 60.0197L112.711 62.1797ZM120.821 57.8997H124.061L130.021 71.8997H126.661L122.341 61.0597L118.001 71.8997H114.721L120.821 57.8997ZM118.121 66.6397H126.381V69.0997H118.121V66.6397ZM137.417 57.8997C138.51 57.8997 139.503 58.073 140.397 58.4197C141.303 58.753 142.083 59.233 142.737 59.8597C143.39 60.473 143.897 61.2063 144.257 62.0597C144.617 62.913 144.797 63.8597 144.797 64.8997C144.797 65.9263 144.617 66.8663 144.257 67.7197C143.897 68.573 143.383 69.313 142.717 69.9397C142.05 70.5663 141.257 71.053 140.337 71.3997C139.43 71.733 138.423 71.8997 137.317 71.8997H131.497V57.8997H137.417ZM137.497 69.3197C138.097 69.3197 138.643 69.213 139.137 68.9997C139.63 68.7863 140.057 68.4863 140.417 68.0997C140.79 67.6997 141.077 67.233 141.277 66.6997C141.477 66.1663 141.577 65.573 141.577 64.9197C141.577 64.2663 141.47 63.673 141.257 63.1397C141.043 62.593 140.75 62.1197 140.377 61.7197C140.003 61.3063 139.557 60.993 139.037 60.7797C138.53 60.5663 137.97 60.4597 137.357 60.4597H134.657V69.3197H137.497ZM146.868 57.8997H157.528V60.4397H150.028V63.5997H156.768V66.1397H150.028V69.3597H157.748V71.8997H146.868V57.8997ZM160.227 57.8997H163.747L168.107 66.6197L172.427 57.8997H175.927V71.8997H173.087V62.2597L169.107 70.4797H167.067L163.067 62.2597V71.8997H160.227V57.8997ZM177.436 57.8997H180.616L184.196 64.2797L187.696 57.8997H190.876L184.396 69.8397H183.976L177.436 57.8997ZM182.616 65.8397H185.776V71.8997H182.616V65.8397Z" fill="#0E294B"/>
<defs>
<linearGradient id="paint0_linear_33_63" x1="27.2186" y1="9.5" x2="8.59221" y2="46.1933" gradientUnits="userSpaceOnUse">
<stop offset="0.486581" stop-color="#D4D9E2"/>
<stop offset="0.496892" stop-color="#8C9AB6"/>
</linearGradient>
</defs>
</svg>
